<?xml version="1.0" standalone="no"?>
<!DOCTYPE svg PUBLIC "-//W3C//DTD SVG 20010904//EN"
 "http://www.w3.org/TR/2001/REC-SVG-20010904/DTD/svg10.dtd">
<svg version="1.0" xmlns="http://www.w3.org/2000/svg"
 width="626.000000pt" height="626.000000pt" viewBox="0 0 626.000000 626.000000"
 preserveAspectRatio="xMidYMid meet">

<g transform="translate(0.000000,626.000000) scale(0.100000,-0.100000)"
fill="#000000" stroke="none">
<path d="M2983 5305 c-29 -8 -76 -27 -105 -41 -96 -49 -1441 -835 -1491 -871
-91 -67 -170 -189 -201 -310 -14 -53 -16 -174 -16 -953 0 -779 2 -900 16 -953
31 -121 110 -243 201 -309 26 -20 170 -107 318 -193 877 -511 1126 -655 1171
-678 151 -76 357 -76 508 0 28 14 272 154 541 311 270 157 582 339 695 405
112 65 227 135 253 154 91 67 170 189 201 310 14 53 16 174 16 953 0 992 3
949 -68 1085 -54 102 -133 175 -287 266 -401 235 -1307 760 -1351 782 -110 55
-283 73 -401 42z m212 -166 c33 -6 82 -22 110 -36 113 -58 1411 -817 1428
-835 20 -23 23 -77 5 -100 -19 -25 -1425 -840 -1483 -860 -61 -21 -175 -23
-238 -4 -26 8 -127 60 -224 117 -795 459 -1260 733 -1271 746 -18 24 -15 78 6
101 14 17 1296 767 1423 833 40 21 129 46 170 48 8 1 42 -4 74 -10z m-942
-1612 c589 -342 761 -446 772 -468 13 -24 15 -159 15 -914 l0 -885 -33 -36
c-52 -57 -80 -52 -233 36 -798 459 -1264 737 -1307 778 -62 60 -104 142 -117
229 -7 44 -10 341 -8 850 3 775 3 782 24 810 23 31 76 53 108 45 12 -2 362
-203 779 -445z m2615 427 c53 -34 52 -24 52 -856 0 -483 -4 -797 -10 -837 -14
-83 -57 -165 -117 -223 -34 -33 -235 -156 -713 -434 -366 -213 -683 -395 -706
-405 -55 -25 -102 -11 -137 41 -16 22 -17 95 -17 908 0 751 2 887 14 911 12
22 184 126 773 468 417 242 765 443 773 446 20 8 60 -1 88 -19z"/>
<path d="M2997 4351 c-117 -39 -166 -106 -130 -178 34 -71 132 -113 263 -113
263 0 369 189 158 280 -75 32 -211 37 -291 11z"/>
<path d="M1645 3521 c-47 -20 -60 -48 -60 -135 0 -70 4 -90 32 -148 55 -117
161 -208 241 -208 21 0 43 10 64 29 32 29 33 31 33 113 0 72 -4 91 -32 150
-40 84 -104 154 -168 184 -52 25 -77 28 -110 15z"/>
<path d="M2443 3048 c-37 -18 -56 -72 -51 -148 7 -132 109 -282 221 -325 61
-23 103 -12 135 35 21 30 23 45 20 105 -10 196 -202 392 -325 333z"/>
<path d="M2063 2842 c-32 -5 -72 -49 -79 -88 -17 -93 31 -227 113 -315 154
-165 313 -90 259 122 -43 164 -182 299 -293 281z"/>
<path d="M1645 2591 c-139 -60 -49 -377 133 -470 144 -74 225 58 153 249 -53
141 -203 257 -286 221z"/>
<path d="M2443 2120 c-45 -18 -69 -98 -53 -180 32 -172 195 -334 303 -303 53
15 72 54 72 142 -1 67 -5 87 -33 144 -74 150 -197 234 -289 197z"/>
<path d="M4505 3507 c-65 -31 -129 -101 -168 -185 -28 -59 -32 -78 -32 -150 0
-82 1 -84 33 -113 21 -19 43 -29 64 -29 78 0 179 85 239 201 30 58 34 72 34
151 0 81 -2 90 -26 113 -36 37 -83 41 -144 12z"/>
<path d="M4145 2840 c-102 -23 -205 -142 -241 -279 -31 -124 8 -211 96 -211
55 0 106 28 163 89 98 105 142 262 98 349 -12 23 -22 42 -24 42 -1 0 -16 4
-32 8 -17 5 -43 6 -60 2z"/>
<path d="M3692 2109 c-56 -28 -124 -105 -164 -186 -28 -57 -32 -77 -33 -144 0
-63 4 -82 21 -106 90 -120 315 51 355 270 5 32 7 68 4 80 -30 104 -89 132
-183 86z"/>
</g>
</svg>
