<?xml version="1.0" standalone="no"?>
<!DOCTYPE svg PUBLIC "-//W3C//DTD SVG 20010904//EN"
 "http://www.w3.org/TR/2001/REC-SVG-20010904/DTD/svg10.dtd">
<svg version="1.0" xmlns="http://www.w3.org/2000/svg"
 width="570.000000pt" height="570.000000pt" viewBox="0 0 570.000000 570.000000"
 preserveAspectRatio="xMidYMid meet">

<g transform="translate(0.000000,570.000000) scale(0.100000,-0.100000)"
fill="#000000" stroke="none">
<path d="M2955 4862 c-28 -11 -71 -32 -95 -47 -47 -29 -371 -237 -520 -333
-47 -30 -134 -86 -195 -125 -140 -89 -175 -124 -175 -175 0 -76 26 -97 287
-233 131 -68 247 -128 258 -133 11 -5 65 -10 120 -10 130 -1 161 -16 339 -164
75 -62 150 -118 167 -124 17 -6 56 -8 88 -5 117 13 92 -5 709 483 246 194 260
211 227 284 -29 65 -5 50 -435 273 -96 50 -211 110 -255 134 -364 194 -420
212 -520 175z m930 -496 c127 -38 172 -143 90 -215 -66 -58 -182 -66 -274 -19
-35 18 -52 35 -69 70 -21 43 -22 48 -9 80 33 79 149 116 262 84z m-737 -31
c61 -18 117 -69 127 -115 13 -60 -54 -131 -136 -145 -104 -18 -219 28 -254
101 -22 46 -13 79 30 120 55 52 141 66 233 39z m-696 -38 c55 -32 78 -65 78
-110 0 -74 -78 -127 -187 -127 -203 0 -292 175 -129 252 61 28 177 21 238 -15z"/>
<path d="M4163 4340 c39 -55 48 -87 36 -134 -12 -49 -35 -74 -150 -162 -42
-33 -159 -124 -260 -204 -101 -80 -229 -180 -284 -224 -119 -93 -180 -124
-265 -133 l-64 -6 59 -54 c33 -29 62 -53 65 -53 3 0 16 19 30 41 22 38 375
329 818 676 113 88 143 94 199 38 l35 -35 -7 27 c-18 74 -105 177 -190 225
l-40 22 18 -24z"/>
<path d="M1933 4228 c-46 -48 -101 -144 -123 -217 -25 -80 -25 -95 0 -54 25
42 68 63 129 63 52 0 100 -22 439 -202 65 -34 97 -46 108 -40 12 7 3 15 -43
39 -430 223 -457 240 -489 310 -18 41 -18 71 0 106 8 15 14 27 12 27 -1 0 -16
-15 -33 -32z"/>
<path d="M4245 4120 c-11 -5 -47 -31 -81 -57 -86 -67 -311 -248 -359 -287 -22
-18 -121 -97 -220 -176 -99 -79 -190 -155 -203 -169 -32 -37 -55 -82 -45 -90
4 -3 20 -17 35 -30 l28 -24 39 45 c50 56 92 77 149 74 37 -2 51 -9 75 -36 29
-33 30 -35 24 -111 -5 -58 -13 -88 -30 -116 l-24 -38 42 -49 c52 -59 103 -160
115 -229 5 -29 11 -122 14 -207 3 -107 8 -154 16 -152 16 3 341 263 374 298
15 16 43 61 62 99 38 77 47 135 59 390 3 72 8 162 10 200 13 184 25 437 25
525 0 79 -3 102 -17 118 -21 25 -60 35 -88 22z m28 -184 c87 -81 -4 -291 -135
-313 -49 -7 -97 35 -105 92 -20 149 150 305 240 221z"/>
<path d="M1874 3980 c-56 -22 -62 -65 -49 -340 9 -187 1 -175 93 -133 42 19
79 37 81 39 2 2 -13 21 -34 42 -84 83 -96 215 -24 260 27 17 100 18 131 1 54
-28 97 -72 124 -126 16 -32 29 -59 30 -61 0 -1 47 19 103 45 l102 48 -78 41
c-308 164 -373 194 -415 193 -24 0 -52 -4 -64 -9z"/>
<path d="M2555 3765 c-27 -8 -54 -14 -60 -15 -5 0 14 -12 43 -26 86 -42 88
-52 98 -414 3 -135 8 -270 9 -300 7 -130 5 -407 -3 -435 -17 -57 -51 -112
-103 -169 -56 -62 -29 -47 -784 -415 -296 -145 -357 -171 -401 -171 -29 0
-100 34 -108 52 -3 7 -4 0 -1 -15 10 -51 45 -133 78 -183 l32 -48 6 46 c4 25
12 55 18 66 15 29 77 75 141 105 30 14 204 98 385 187 479 235 571 279 621
291 99 25 268 -10 330 -68 24 -23 177 -151 273 -228 13 -11 43 -36 65 -55 23
-20 121 -102 218 -183 98 -82 184 -158 193 -170 20 -28 19 -106 -1 -135 -20
-30 -9 -28 35 5 62 48 123 120 136 162 7 23 7 23 -16 7 -13 -9 -43 -16 -69
-16 -48 0 -72 16 -241 162 -30 25 -72 61 -95 80 -39 31 -155 131 -219 187 -16
14 -41 35 -56 46 -99 74 -265 224 -296 267 -44 61 -79 137 -87 188 -3 19 -8
91 -11 160 -3 69 -7 168 -10 220 -7 162 -20 560 -20 658 0 93 0 94 33 123 18
16 40 29 50 30 11 1 8 4 -8 9 -39 12 -120 10 -175 -5z"/>
<path d="M2705 3705 c-14 -13 -25 -32 -25 -42 0 -10 7 -184 15 -388 8 -203 17
-440 20 -525 7 -183 27 -264 89 -352 38 -54 209 -201 641 -553 61 -49 121
-100 135 -114 68 -66 133 -79 177 -35 l26 26 -7 217 c-3 119 -11 363 -16 542
-14 473 -12 468 -335 730 -195 159 -338 277 -482 397 -157 131 -191 145 -238
97z m245 -154 c77 -61 112 -190 70 -259 -52 -86 -158 -54 -224 68 -24 44 -28
60 -24 111 8 113 89 150 178 80z m642 -1394 c87 -52 142 -179 117 -271 -14
-51 -32 -72 -76 -87 -71 -23 -171 59 -208 171 -24 72 -14 133 30 177 40 40 83
43 137 10z"/>
<path d="M2420 3695 c-33 -12 -123 -55 -550 -263 -493 -239 -490 -237 -527
-319 -35 -76 -40 -127 -88 -958 -3 -49 -8 -116 -11 -147 -11 -110 60 -178 157
-149 36 11 223 101 784 376 324 158 343 173 407 302 l31 64 -7 282 c-19 790
-16 769 -79 807 -37 23 -67 24 -117 5z m51 -154 c16 -16 30 -38 30 -48 8 -107
-49 -204 -146 -249 -70 -33 -119 -32 -156 5 -24 25 -29 37 -29 81 0 64 18 106
67 160 74 83 179 105 234 51z m-428 -602 c84 -65 32 -235 -92 -302 -96 -53
-186 -26 -198 59 -20 153 186 326 290 243z m-423 -617 c59 -59 47 -148 -32
-237 -51 -57 -103 -85 -163 -85 -128 0 -143 155 -28 274 76 78 172 99 223 48z"/>
<path d="M2530 2291 c-41 -9 -89 -32 -465 -216 -154 -75 -357 -175 -452 -221
-145 -70 -176 -89 -197 -121 -29 -42 -33 -81 -12 -122 16 -29 143 -116 770
-526 211 -138 289 -159 401 -112 50 21 358 171 865 421 116 57 150 92 150 155
0 41 -4 48 -63 105 -35 34 -123 111 -197 171 -282 231 -375 308 -380 314 -19
24 -147 115 -184 131 -50 23 -179 34 -236 21z m158 -566 c158 -67 115 -225
-69 -254 -103 -17 -218 37 -234 108 -12 54 44 122 120 149 45 16 141 14 183
-3z"/>
</g>
</svg>
